<svg id="Group_98" data-name="Group 98" xmlns="http://www.w3.org/2000/svg" width="54.986" height="62.755" viewBox="0 0 54.986 62.755">
  <g id="Group_2" data-name="Group 2" transform="translate(0)">
    <path id="Path_2" data-name="Path 2" d="M3.545,5.536c-25.34-11.476-25.175-32.866-25.175-53.05A78.155,78.155,0,0,1,3.545-51.826a78.115,78.115,0,0,1,25.164,4.311c0,20.184.178,41.574-25.164,53.05m0-60.078a85.763,85.763,0,0,0-27.5,4.67v.614c.016,22.088.176,45,27.5,57.472,27.318-12.479,27.474-35.4,27.488-57.492v-.593a85.72,85.72,0,0,0-27.489-4.67" transform="translate(23.953 54.542)" fill="#d1a665" fill-rule="evenodd"/>
  </g>
  <g id="Group_3" data-name="Group 3" transform="translate(11.538 15.459)">
    <path id="Path_3" data-name="Path 3" d="M2.131.063a2.311,2.311,0,0,1,.591,1.372c-.328.159-.754.2-.972.473,1.456-.213,1.778,1.566,3.4.887a.516.516,0,0,0,.65.367l.162-.467c.653-.214.482.881,1.184.675.327.315.11.844.327,1.211a3,3,0,0,0,.379,1.152c.156-.213.273-.531.7-.423a1.737,1.737,0,0,1,.592,1c-.1.672-.266,1.305.434,1.665v.214c.491.215,1.512-.214,1.512.628-.053.321.318.051.434.2a3.824,3.824,0,0,1,1.076-.043c.266.632-.378,1.1-.538,1.672.269.317.161.836.108,1.206l-.162.1c.431.111,1.019-.045,1.459.21l.749.317a2.071,2.071,0,0,1,1.247-.206c.375.271-.107.735.214.942.375,0,.76.058.814.419l.055.108c.32-.527,1.127-.164,1.5-.582.6,0,.706.682.972,1.055.109.942-.972,1.355-.644,2.305a7.785,7.785,0,0,1-1.024,1.25c.108.055.055.214.055.316-.377.207-.055.835-.54.887-.057.421-.814.269-.537.683.48.632-.277,1.048-.277,1.623-.269.326-.861-.313-.861.326-.375.1-.7-.326-.975.045-.1.42.271.574.22.988.594-.051.754.531.967.894l.6.632c-.6.473-1.354-.056-2.055.209-.155-.1,0-.314-.155-.422a1.445,1.445,0,0,0-.866-.254c.054.254-.432.362-.223.676,0,.1.11.36-.1.36-.484.162-.431-.41-.864-.206-.537.206-.1,1.052-.863.943.113.74-1.189,1.206-.317,1.835.156.163.048.366.1.579a2.325,2.325,0,0,1-2.105.1c-.479-.1-.161-.74-.372-1.05-.17-.316-.7-.522-.7-.941a1.872,1.872,0,0,1-.858-.574A4.905,4.905,0,0,1,3.583,27.1c-.541.268-.8,1.369-1.671.9-.326.574-1.292,0-1.349.78-.38.16-.218.686-.432.948A1.372,1.372,0,0,0,.62,31.183c.208.48-.437.48-.168.891a.372.372,0,0,1-.108.419c-.162.11-.214.2-.162.375-.158,0-.215.1-.318.213-.168.314-.652.463-.974.675-.324.106-.543-.162-.754-.361a.644.644,0,0,1-.65.523c-.486,0-.379-.428-.753-.63.16-.536-.324-.794-.165-1.26.375-.317,1.024-.525.862-1.149-.429-.532-.273-1.317-.7-1.891-.27-.262-.7-.63-.542-1.206.377-.469,0-.992-.216-1.464a4.856,4.856,0,0,1-.318-1.256c-.649-.363-.708-1.415-1.623-1.523-.651,0-.758-.834-1.406-.784-.051-.11-.216-.21-.321-.315-.486.315-1.079-.107-1.674.058-.378-.684.325-1.572-.7-1.995v-.424c.1.055.163-.048.216-.1.048-.466-.76-.515-.433-1.049-.163-.148-.379-.21-.27-.521-.435-.942-1.789-.837-2.049-1.775A1.675,1.675,0,0,0-12.284,16a1.747,1.747,0,0,1-.209-1.157c.209-.05.327-.31.427-.515-.274-.213-.6-.478-.861-.372a5.311,5.311,0,0,1-1.4-.788c-.108-.1-.052-.311-.052-.47.647-.21-.11-1.147.7-1.049.212-.258.643-.361.969-.572a1.944,1.944,0,0,1,.916.152c.267.371.758.208,1.022.529a1.4,1.4,0,0,1,.923-.061,1.56,1.56,0,0,1,.595-1.2c.049-.2.373-.368.644-.468A1.611,1.611,0,0,0-7.156,9.76c.222.156.433-.149.7-.149a1.024,1.024,0,0,1,.812.2c.047-.623,1.071-.1,1.3-.833.21-.477-.649-.68-.6-1.1-.166-.464.209-.728.37-1.042a1.1,1.1,0,0,1,.7-.165c.7-.261.163-1.675,1.243-1.15,0,.152-.056.316.051.368.381,0,.434-.469.706-.631.1-.417-.158-.948.211-1.259a.688.688,0,0,0,.431-.262A.885.885,0,0,0-1.652,3c-.108.159-.323.052-.483.107,0-.361-.218-.629-.272-.941A.418.418,0,0,1-2.62,1.7c.266-.26,0-.937.645-.79.215-.2.649-.046.866-.411C-.462.123.344.123.828-.556c.22.051.435-.16.649,0,.056.419.6.263.654.619" transform="translate(14.396 0.617)" fill="#d1a665" fill-rule="evenodd"/>
  </g>
  <g id="Group_4" data-name="Group 4" transform="translate(11.366 6.814)">
    <path id="Path_4" data-name="Path 4" d="M.916.241-1.311,1.83-.575,4.3-2.668,2.788-4.814,4.294l.822-2.475L-6.192.241H-3.46l.868-2.612L-1.8.241Z" transform="translate(6.192 2.371)" fill="#d1a665" fill-rule="evenodd"/>
  </g>
  <g id="Group_5" data-name="Group 5" transform="translate(19.253 5.11)">
    <path id="Path_5" data-name="Path 5" d="M.916.242-1.322,1.826l.739,2.486L-2.675,2.793-4.813,4.3-4,1.822-6.187.242h2.724L-2.6-2.381l.79,2.623Z" transform="translate(6.187 2.381)" fill="#d1a665" fill-rule="evenodd"/>
  </g>
  <g id="Group_6" data-name="Group 6" transform="translate(3.969 9.238)">
    <path id="Path_6" data-name="Path 6" d="M.916.24l-2.233,1.6.735,2.474L-2.67,2.8-4.813,4.3l.82-2.464L-6.186.24h2.723l.869-2.608L-1.805.24Z" transform="translate(6.186 2.368)" fill="#d1a665" fill-rule="evenodd"/>
  </g>
  <g id="Group_7" data-name="Group 7" transform="translate(35.913 6.232)">
    <path id="Path_7" data-name="Path 7" d="M0,.241,2.227,1.832,1.49,4.315,3.581,2.8,5.724,4.3,4.9,1.832,7.1.241H4.372L3.506-2.375,2.716.241Z" transform="translate(0 2.375)" fill="#d1a665" fill-rule="evenodd"/>
  </g>
  <g id="Group_8" data-name="Group 8" transform="translate(27.914 5.11)">
    <path id="Path_8" data-name="Path 8" d="M0,.242,2.234,1.826,1.495,4.312l2.1-1.519L5.734,4.3,4.916,1.822,7.113.242H4.378L3.515-2.381,2.717.242Z" transform="translate(0 2.381)" fill="#d1a665" fill-rule="evenodd"/>
  </g>
  <g id="Group_9" data-name="Group 9" transform="translate(44.103 8.513)">
    <path id="Path_9" data-name="Path 9" d="M0,.241l2.233,1.6L1.494,4.311,3.588,2.8,5.733,4.308l-.82-2.482L7.112.241H4.381L3.514-2.376,2.721.241Z" transform="translate(0 2.376)" fill="#d1a665" fill-rule="evenodd"/>
  </g>
</svg>
