<?xml version="1.0" encoding="iso-8859-1"?>
<!-- Generator: Adobe Illustrator 21.0.0, SVG Export Plug-In . SVG Version: 6.00 Build 0)  -->
<svg xmlns="http://www.w3.org/2000/svg" xmlns:xlink="http://www.w3.org/1999/xlink" version="1.1" id="Capa_1" x="0px" y="0px" viewBox="0 0 512 512" style="enable-background:new 0 0 512 512;" xml:space="preserve" width="512" height="512">
<g>
	<g>
		<g>
			<g>
				<g>
					<g>
						<g>
							<g>
								<g>
									<g>
										<g>
											<g>
												<circle style="fill:#00C8C8;" cx="256" cy="256" r="256"/>
											</g>
										</g>
									</g>
								</g>
							</g>
						</g>
					</g>
				</g>
			</g>
		</g>
	</g>
	<path style="fill:#00B5B0;" d="M92.508,294.201l212.998,212.998C423.197,484.136,512,380.446,512,256   c0-13.153-0.995-26.073-2.908-38.691l-89.6-89.6L92.508,294.201z"/>
	<g>
		<rect x="92.508" y="127.709" style="fill:#FFFFFF;" width="326.984" height="166.492"/>
	</g>
	<g>
		<rect x="255.905" y="127.709" style="fill:#E9EDF5;" width="163.587" height="166.492"/>
	</g>
	<g>
		<path style="fill:#495F7A;" d="M116.497,174.762h21.582l15.038,48.081l14.845-48.081h20.954l-24.808,66.812h-22.377    L116.497,174.762z"/>
		<path style="fill:#495F7A;" d="M189.872,208.214c0-10.907,3.038-19.399,9.115-25.477c6.076-6.076,14.538-9.115,25.385-9.115    c11.12,0,19.688,2.985,25.704,8.956c6.016,5.97,9.024,14.333,9.024,25.089c0,7.809-1.315,14.212-3.942,19.209    c-2.628,4.998-6.426,8.887-11.394,11.667c-4.968,2.78-11.159,4.17-18.572,4.17c-7.535,0-13.771-1.2-18.708-3.6    c-4.938-2.4-8.94-6.198-12.009-11.394C191.406,222.524,189.872,216.022,189.872,208.214z M210.517,208.305    c0,6.745,1.253,11.592,3.76,14.539c2.507,2.947,5.917,4.42,10.231,4.42c4.436,0,7.869-1.442,10.3-4.33    c2.431-2.886,3.646-8.066,3.646-15.541c0-6.29-1.269-10.885-3.806-13.787c-2.537-2.901-5.978-4.352-10.322-4.352    c-4.163,0-7.505,1.474-10.026,4.42C211.777,196.623,210.517,201.499,210.517,208.305z"/>
		<path style="fill:#31465B;" d="M255.905,191.036v34.271c2.123-4.748,3.195-10.621,3.195-17.64    C259.1,201.276,258.029,195.737,255.905,191.036z"/>
		<path style="fill:#31465B;" d="M263.11,174.762h62.756v16.498h-21.055v50.314h-20.646V191.26H263.11V174.762z"/>
		<path style="fill:#31465B;" d="M335.163,174.762h55.328v14.265h-34.637v10.619h32.13v13.627h-32.13v13.171h35.639v15.131h-56.33    V174.762z"/>
	</g>
	<g>
		<polygon style="fill:#495F7A;" points="369.792,331.261 196.995,255.619 272.637,428.416 291.655,387.716 341.015,437.076     378.452,399.639 329.092,350.28   "/>
	</g>
	<g>
		<polygon style="fill:#31465B;" points="378.452,399.639 329.092,350.28 369.792,331.262 196.995,255.619 197.233,256.162     359.581,418.51   "/>
	</g>
</g>















</svg>
